HIERARCHY
ROOT Hips
{
	OFFSET 0.000000 0.000000 0.000000
	CHANNELS 6 Xposition Yposition Zposition Xrotation Yrotation Zrotation
	JOINT LeftUpLeg_virtual
	{
		OFFSET 0.000000 0.000000 0.000000
		CHANNELS 3 Xrotation Yrotation Zrotation
		JOINT LeftUpLeg
		{
			OFFSET 11.394100 -6.187798 -0.413800
			CHANNELS 3 Xrotation Yrotation Zrotation
			JOINT LeftLeg
			{
				OFFSET 0.430247 -32.302673 3.732800
				CHANNELS 3 Xrotation Yrotation Zrotation
				JOINT LeftFoot
				{
					OFFSET -0.430247 -48.264931 -6.423300
					CHANNELS 3 Xrotation Yrotation Zrotation
					JOINT LeftToeBase
					{
						OFFSET 4.230900 -16.068199 23.438400
						CHANNELS 3 Xrotation Yrotation Zrotation
						JOINT LeftToe_End
						{
							OFFSET 4.510700 0.695400 19.974600
							CHANNELS 3 Xrotation Yrotation Zrotation
							End Site
							{
								OFFSET 0 0 0
							}
						}
					}
				}
			}
		}
	}
	JOINT RightUpLeg_virtual
	{
		OFFSET 0.000000 0.000000 0.000000
		CHANNELS 3 Xrotation Yrotation Zrotation
		JOINT RightUpLeg
		{
			OFFSET -11.333700 -6.187798 -0.413800
			CHANNELS 3 Xrotation Yrotation Zrotation
			JOINT RightLeg
			{
				OFFSET -0.430392 -32.302628 3.733000
				CHANNELS 3 Xrotation Yrotation Zrotation
				JOINT RightFoot
				{
					OFFSET 0.430392 -48.264973 -6.423500
					CHANNELS 3 Xrotation Yrotation Zrotation
					JOINT RightToeBase
					{
						OFFSET -4.230900 -16.068199 23.438400
						CHANNELS 3 Xrotation Yrotation Zrotation
						JOINT RightToe_End
						{
							OFFSET -4.510700 0.695400 19.974600
							CHANNELS 3 Xrotation Yrotation Zrotation
							End Site
							{
								OFFSET 0 0 0
							}
						}
					}
				}
			}
		}
	}
	JOINT Spine_virtual
	{
		OFFSET 0.000000 0.000000 0.000000
		CHANNELS 3 Xrotation Yrotation Zrotation
		JOINT Spine
		{
			OFFSET -0.002400 12.777504 0.315300
			CHANNELS 3 Xrotation Yrotation Zrotation
			JOINT Spine1
			{
				OFFSET -0.002067 5.816869 0.032633
				CHANNELS 3 Xrotation Yrotation Zrotation
				JOINT Spine1_split
				{
					OFFSET -0.002067 5.816869 0.032633
					CHANNELS 3 Xrotation Yrotation Zrotation
					JOINT Spine2
					{
						OFFSET -0.002067 5.816869 0.032633
						CHANNELS 3 Xrotation Yrotation Zrotation
						JOINT Neck_virtual
						{
							OFFSET 0.000000 0.000000 0.000000
							CHANNELS 3 Xrotation Yrotation Zrotation
							JOINT Neck
							{
								OFFSET -0.003700 21.199493 -0.826900
								CHANNELS 3 Xrotation Yrotation Zrotation
								JOINT Head
								{
									OFFSET 0.000000 20.442200 4.834800
									CHANNELS 3 Xrotation Yrotation Zrotation
									JOINT HeadTop_End
									{
										OFFSET 0.000000 34.668396 4.968400
										CHANNELS 3 Xrotation Yrotation Zrotation
										End Site
										{
											OFFSET 0 0 0
										}
									}
								}
							}
						}
						JOINT LeftShoulder_virtual
						{
							OFFSET 0.000000 0.000000 0.000000
							CHANNELS 3 Xrotation Yrotation Zrotation
							JOINT LeftShoulder
							{
								OFFSET 3.288150 8.794197 -1.372250
								CHANNELS 3 Xrotation Yrotation Zrotation
								JOINT LeftShoulder_split
								{
									OFFSET 3.288150 8.794197 -1.372250
									CHANNELS 3 Xrotation Yrotation Zrotation
									JOINT LeftArm
									{
										OFFSET 11.953299 -2.279007 -0.146200
										CHANNELS 3 Xrotation Yrotation Zrotation
										JOINT LeftForeArm
										{
											OFFSET 18.448900 0.000000 0.000000
											CHANNELS 3 Xrotation Yrotation Zrotation
											JOINT LeftHand
											{
												OFFSET 29.527798 0.000000 0.000000
												CHANNELS 3 Xrotation Yrotation Zrotation
												End Site
												{
													OFFSET 0 0 0
												}
											}
										}
									}
								}
							}
						}
						JOINT RightShoulder_virtual
						{
							OFFSET 0.000000 0.000000 0.000000
							CHANNELS 3 Xrotation Yrotation Zrotation
							JOINT RightShoulder
							{
								OFFSET -3.249400 8.794197 -1.372250
								CHANNELS 3 Xrotation Yrotation Zrotation
								JOINT RightShoulder_split
								{
									OFFSET -3.249400 8.794197 -1.372250
									CHANNELS 3 Xrotation Yrotation Zrotation
									JOINT RightArm
									{
										OFFSET -11.953299 -2.279007 -0.146200
										CHANNELS 3 Xrotation Yrotation Zrotation
										JOINT RightForeArm
										{
											OFFSET -18.448900 0.000000 0.000000
											CHANNELS 3 Xrotation Yrotation Zrotation
											JOINT RightHand
											{
												OFFSET -29.527802 0.000000 0.000000
												CHANNELS 3 Xrotation Yrotation Zrotation
												End Site
												{
													OFFSET 0 0 0
												}
											}
										}
									}
								}
							}
						}
					}
				}
			}
		}
	}
}
MOTION
Frames: 5
Frame Time: 0.03333333
3.789067 85.051331 -13.239357 0.000000 0.000000 0.000000 45.785162 5.094494 -3.070463 -99.884584 3.785401 19.509809 42.024798 11.733577 -2.491822 10.093278 13.217822 -8.183503 2.210332 1.407862 -1.785260 0.000000 0.000000 0.000000 46.018263 4.844718 -1.332018 -53.392002 8.407389 -8.249000 67.105666 1.616561 -4.700755 13.766033 -1.785371 9.869787 -23.777424 -1.001668 16.121598 0.000000 0.000000 0.000000 49.154355 -2.501214 1.902714 12.015565 0.294118 -3.175964 11.541668 1.647822 -0.751004 0.116003 2.319507 1.119591 0.000000 0.000000 0.000000 27.118498 1.220252 -0.814318 -22.788735 -5.000965 6.176653 -18.671620 5.000094 -6.805863 0.000000 0.000000 0.000000 26.000469 2.294853 -0.319055 4.046467 -2.589035 7.119165 6.708592 -17.421581 -5.002833 -34.431892 -46.077853 -33.307800 2.188221 -46.670153 3.233909 0.000000 0.000000 0.000000 25.160588 0.953546 -0.074744 -2.399314 34.066709 11.407164 7.440870 9.348249 3.026815 -50.914184 22.102557 26.823662 2.698554 38.819356 -4.279544 0.000000 0.000000 0.000000 
3.640212 86.372017 -12.397015 0.000000 0.000000 0.000000 41.976348 3.157676 -1.583200 -94.314011 4.315935 18.293675 39.295390 12.212367 -2.385634 9.739476 14.151063 -8.556011 2.248897 1.508444 -2.168107 0.000000 0.000000 0.000000 42.155856 2.598972 0.249578 -57.946184 9.065263 -7.440949 70.099229 0.901703 -4.370151 9.482488 -2.757153 7.632239 -14.562530 1.106391 12.519511 0.000000 0.000000 0.000000 44.879896 -4.181765 2.729342 12.624753 0.062506 -3.308913 11.598233 1.602130 -0.494492 0.046656 2.293644 1.082984 0.000000 0.000000 0.000000 27.046589 1.178086 -0.564150 -22.260358 -4.831213 6.201194 -17.927479 5.520495 -6.137405 0.000000 0.000000 0.000000 25.775852 2.215265 -0.115828 4.051366 -1.887401 5.727706 5.397547 -17.703143 -4.752846 -32.900738 -44.787627 -34.808355 1.862797 -46.448900 2.742440 0.000000 0.000000 0.000000 24.985908 0.926564 0.092911 -2.586847 33.057112 12.184735 7.954233 9.146372 3.795146 -49.213627 21.909464 29.412263 2.801125 37.288851 -4.815250 0.000000 0.000000 0.000000 
3.575596 87.779861 -11.334827 0.000000 0.000000 0.000000 38.238551 0.806991 -0.293530 -88.678190 4.952526 17.475367 36.712120 12.507220 -2.321063 8.946329 14.643687 -8.786820 1.905979 1.591941 -2.400464 0.000000 0.000000 0.000000 38.341547 -0.274151 1.711183 -61.531911 9.854519 -6.661359 70.672787 0.797429 -4.471487 7.125664 -2.501392 6.699724 -10.151498 1.793724 9.470368 0.000000 0.000000 0.000000 40.895891 -5.980337 3.358226 13.039962 -0.106901 -3.349503 11.604422 1.632732 -0.246963 -0.074538 2.183077 1.084665 0.000000 0.000000 0.000000 26.903413 1.206974 -0.364860 -21.632124 -4.597706 6.083600 -17.115250 6.018308 -5.657714 0.000000 0.000000 0.000000 25.469944 2.217981 0.067463 4.039890 -1.286135 4.280656 4.163498 -17.710742 -4.512853 -31.566604 -43.269269 -36.563918 1.446427 -45.405557 2.175975 0.000000 0.000000 0.000000 24.736336 0.990589 0.235414 -2.640697 31.949883 12.722741 8.411830 8.818473 4.381335 -47.621349 21.491902 31.619712 2.732607 35.470859 -5.185658 0.000000 0.000000 0.000000 
3.487652 89.303291 -10.039928 0.000000 0.000000 0.000000 34.656639 -1.544142 0.531896 -83.053120 5.902400 17.270765 34.242170 12.680821 -2.314375 8.298816 14.756202 -8.908129 1.704341 1.645928 -2.499681 0.000000 0.000000 0.000000 34.579038 -3.269380 2.686673 -63.750315 10.515053 -6.138792 68.498608 1.115425 -4.823948 5.910597 -1.368324 6.570937 -9.308738 1.595698 7.064311 0.000000 0.000000 0.000000 37.284442 -7.839027 3.664861 13.264305 -0.182276 -3.262642 11.561676 1.747647 -0.009945 -0.154674 2.091850 1.135900 0.000000 0.000000 0.000000 26.678280 1.293181 -0.202107 -20.948253 -4.297500 5.847464 -16.129608 6.573894 -5.389591 0.000000 0.000000 0.000000 25.084705 2.285998 0.244630 4.019481 -0.824756 2.896768 3.297978 -17.614805 -4.249083 -30.364596 -41.699510 -38.427597 1.097608 -43.836793 1.668840 0.000000 0.000000 0.000000 24.425276 1.132802 0.365682 -2.561043 30.779213 13.016970 8.745310 8.286855 4.970688 -45.952765 20.757614 33.321098 2.544424 33.715952 -5.427451 0.000000 0.000000 0.000000 
3.334114 90.962090 -8.569988 0.000000 0.000000 0.000000 31.250639 -3.749234 0.808763 -77.489896 7.238546 17.576387 31.714368 12.925701 -2.307940 8.023632 14.692133 -8.955236 1.858062 1.693791 -2.564031 0.000000 0.000000 0.000000 30.921796 -5.828337 2.926343 -64.535295 10.585530 -6.173843 63.991592 1.401107 -5.098142 5.252324 0.101106 6.701964 -10.492486 1.037330 4.968922 0.000000 0.000000 0.000000 33.968061 -9.478621 3.555053 13.349234 -0.204392 -3.049356 11.472449 1.903132 0.205281 -0.186103 1.916323 1.213771 0.000000 0.000000 0.000000 26.352451 1.396063 -0.064469 -20.279011 -3.935963 5.537170 -14.869296 7.170984 -5.302170 0.000000 0.000000 0.000000 24.618416 2.371987 0.426422 3.991520 -0.571546 1.661016 2.531342 -17.367983 -3.999585 -29.170013 -40.263412 -40.239906 0.925488 -42.070550 1.320991 0.000000 0.000000 0.000000 24.053561 1.304122 0.489795 -2.364324 29.554898 13.099242 9.111580 7.563219 5.641993 -44.250313 19.670272 34.612598 2.264478 32.356242 -5.582856 0.000000 0.000000 0.000000 
